<svg width="111" height="66" viewBox="0 0 111 66" fill="none" xmlns="http://www.w3.org/2000/svg">
<path d="M16.0578 63.7188H28.6652C28.9367 63.7188 29.197 63.8266 29.389 64.0186C29.581 64.2106 29.6888 64.4709 29.6888 64.7424V64.752C29.6888 65.0235 29.581 65.2839 29.389 65.4759C29.197 65.6678 28.9367 65.7757 28.6652 65.7757H16.0495C15.7781 65.7757 15.5177 65.6678 15.3257 65.4759C15.1337 65.2839 15.0259 65.0235 15.0259 64.752C15.0259 64.4783 15.1346 64.2159 15.3281 64.0224C15.5216 63.8288 15.7841 63.7201 16.0578 63.7201V63.7188Z" fill="#122C5A"/>
<path d="M13.4501 63.7188H9.47602C8.90839 63.7188 8.44824 64.1789 8.44824 64.7465C8.44824 65.3142 8.90839 65.7743 9.47602 65.7743H13.4501C14.0177 65.7743 14.4779 65.3142 14.4779 64.7465C14.4779 64.1789 14.0177 63.7188 13.4501 63.7188Z" fill="#122C5A"/>
<path d="M21.8091 60.0186H8.10541C7.53779 60.0186 7.07764 60.4787 7.07764 61.0463C7.07764 61.614 7.53779 62.0741 8.10541 62.0741H21.8091C22.3767 62.0741 22.8369 61.614 22.8369 61.0463C22.8369 60.4787 22.3767 60.0186 21.8091 60.0186Z" fill="#122C5A"/>
<path d="M32.2241 60.0186H24.413C23.8454 60.0186 23.3853 60.4787 23.3853 61.0463C23.3853 61.614 23.8454 62.0741 24.413 62.0741H32.2241C32.7918 62.0741 33.2519 61.614 33.2519 61.0463C33.2519 60.4787 32.7918 60.0186 32.2241 60.0186Z" fill="#122C5A"/>
<path d="M68.676 60.0186H49.2167C48.6491 60.0186 48.189 60.4787 48.189 61.0463C48.189 61.614 48.6491 62.0741 49.2167 62.0741H68.676C69.2436 62.0741 69.7038 61.614 69.7038 61.0463C69.7038 60.4787 69.2436 60.0186 68.676 60.0186Z" fill="#122C5A"/>
<path d="M34.2795 56.3184H23.0424C22.4748 56.3184 22.0146 56.7785 22.0146 57.3461C22.0146 57.9138 22.4748 58.3739 23.0424 58.3739H34.2795C34.8471 58.3739 35.3072 57.9138 35.3072 57.3461C35.3072 56.7785 34.8471 56.3184 34.2795 56.3184Z" fill="#122C5A"/>
<path d="M20.439 56.3184H7.55756C6.98994 56.3184 6.52979 56.7785 6.52979 57.3461C6.52979 57.9138 6.98994 58.3739 7.55756 58.3739H20.439C21.0067 58.3739 21.4668 57.9138 21.4668 57.3461C21.4668 56.7785 21.0067 56.3184 20.439 56.3184Z" fill="#122C5A"/>
<path d="M36.3353 52.6187H6.7353C6.16767 52.6187 5.70752 53.0788 5.70752 53.6464C5.70752 54.2141 6.16767 54.6742 6.7353 54.6742H36.3353C36.9029 54.6742 37.3631 54.2141 37.3631 53.6464C37.3631 53.0788 36.9029 52.6187 36.3353 52.6187Z" fill="#122C5A"/>
<path d="M66.2093 52.6187H38.9389C38.3713 52.6187 37.9111 53.0788 37.9111 53.6464C37.9111 54.2141 38.3713 54.6742 38.9389 54.6742H66.2093C66.7769 54.6742 67.2371 54.2141 67.2371 53.6464C67.2371 53.0788 66.7769 52.6187 66.2093 52.6187Z" fill="#122C5A"/>
<path d="M45.3798 48.9185H32.7724C32.2048 48.9185 31.7446 49.3786 31.7446 49.9462C31.7446 50.5139 32.2048 50.974 32.7724 50.974H45.3798C45.9474 50.974 46.4076 50.5139 46.4076 49.9462C46.4076 49.3786 45.9474 48.9185 45.3798 48.9185Z" fill="#122C5A"/>
<path d="M64.9759 48.9185H59.3574C58.7897 48.9185 58.3296 49.3786 58.3296 49.9462C58.3296 50.5139 58.7897 50.974 59.3574 50.974H64.9759C65.5435 50.974 66.0037 50.5139 66.0037 49.9462C66.0037 49.3786 65.5435 48.9185 64.9759 48.9185Z" fill="#122C5A"/>
<path d="M9.61294 48.9185H1.11664C0.549019 48.9185 0.0888672 49.3786 0.0888672 49.9462C0.0888672 50.5139 0.549019 50.974 1.11664 50.974H9.61294C10.1806 50.974 10.6407 50.5139 10.6407 49.9462C10.6407 49.3786 10.1806 48.9185 9.61294 48.9185Z" fill="#122C5A"/>
<path d="M9.61294 45.2188H1.11664C0.549019 45.2188 0.0888672 45.6789 0.0888672 46.2465C0.0888672 46.8142 0.549019 47.2743 1.11664 47.2743H9.61294C10.1806 47.2743 10.6407 46.8142 10.6407 46.2465C10.6407 45.6789 10.1806 45.2188 9.61294 45.2188Z" fill="#122C5A"/>
<path d="M39.7611 45.2188H38.5278C37.9602 45.2188 37.5 45.6789 37.5 46.2465C37.5 46.8142 37.9602 47.2743 38.5278 47.2743H39.7611C40.3287 47.2743 40.7889 46.8142 40.7889 46.2465C40.7889 45.6789 40.3287 45.2188 39.7611 45.2188Z" fill="#122C5A"/>
<path d="M71.8276 45.2188H65.1127C64.5451 45.2188 64.085 45.6789 64.085 46.2465C64.085 46.8142 64.5451 47.2743 65.1127 47.2743H71.8276C72.3952 47.2743 72.8553 46.8142 72.8553 46.2465C72.8553 45.6789 72.3952 45.2188 71.8276 45.2188Z" fill="#122C5A"/>
<path d="M9.61273 41.5186H6.46088C5.89326 41.5186 5.43311 41.9787 5.43311 42.5463C5.43311 43.114 5.89326 43.5741 6.46088 43.5741H9.61273C10.1804 43.5741 10.6405 43.114 10.6405 42.5463C10.6405 41.9787 10.1804 41.5186 9.61273 41.5186Z" fill="#122C5A"/>
<path d="M29.4835 41.5186H19.3427C18.7751 41.5186 18.3149 41.9787 18.3149 42.5463C18.3149 43.114 18.7751 43.5741 19.3427 43.5741H29.4835C30.0511 43.5741 30.5112 43.114 30.5112 42.5463C30.5112 41.9787 30.0511 41.5186 29.4835 41.5186Z" fill="#122C5A"/>
<path d="M56.6208 41.5186H39.3459C38.7806 41.5186 38.3223 41.9769 38.3223 42.5422V42.5504C38.3223 43.1158 38.7806 43.5741 39.3459 43.5741H56.6208C57.1862 43.5741 57.6445 43.1158 57.6445 42.5504V42.5422C57.6445 41.9769 57.1862 41.5186 56.6208 41.5186Z" fill="#122C5A"/>
<path d="M68.6758 41.5186H66.3461C65.7785 41.5186 65.3184 41.9787 65.3184 42.5463C65.3184 43.114 65.7785 43.5741 66.3461 43.5741H68.6758C69.2434 43.5741 69.7035 43.114 69.7035 42.5463C69.7035 41.9787 69.2434 41.5186 68.6758 41.5186Z" fill="#122C5A"/>
<path d="M80.7351 41.5186H79.7758C79.2082 41.5186 78.748 41.9787 78.748 42.5463C78.748 43.114 79.2082 43.5741 79.7758 43.5741H80.7351C81.3027 43.5741 81.7629 43.114 81.7629 42.5463C81.7629 41.9787 81.3027 41.5186 80.7351 41.5186Z" fill="#122C5A"/>
<path d="M83.4759 37.8184H77.4462C76.8786 37.8184 76.4185 38.2785 76.4185 38.8461C76.4185 39.4138 76.8786 39.8739 77.4462 39.8739H83.4759C84.0435 39.8739 84.5036 39.4138 84.5036 38.8461C84.5036 38.2785 84.0435 37.8184 83.4759 37.8184Z" fill="#122C5A"/>
<path d="M67.1686 37.8184H65.3872C64.8195 37.8184 64.3594 38.2785 64.3594 38.8461C64.3594 39.4138 64.8195 39.8739 65.3872 39.8739H67.1686C67.7363 39.8739 68.1964 39.4138 68.1964 38.8461C68.1964 38.2785 67.7363 37.8184 67.1686 37.8184Z" fill="#122C5A"/>
<path d="M50.176 37.8184H37.4316C36.864 37.8184 36.4038 38.2785 36.4038 38.8461C36.4038 39.4138 36.864 39.8739 37.4316 39.8739H50.176C50.7437 39.8739 51.2038 39.4138 51.2038 38.8461C51.2038 38.2785 50.7437 37.8184 50.176 37.8184Z" fill="#122C5A"/>
<path d="M29.4835 37.8184H19.3427C18.7751 37.8184 18.3149 38.2785 18.3149 38.8461C18.3149 39.4138 18.7751 39.8739 19.3427 39.8739H29.4835C30.0511 39.8739 30.5112 39.4138 30.5112 38.8461C30.5112 38.2785 30.0511 37.8184 29.4835 37.8184Z" fill="#122C5A"/>
<path d="M41.5425 34.1187H34.1425C33.5749 34.1187 33.1147 34.5788 33.1147 35.1464C33.1147 35.7141 33.5749 36.1742 34.1425 36.1742H41.5425C42.1102 36.1742 42.5703 35.7141 42.5703 35.1464C42.5703 34.5788 42.1102 34.1187 41.5425 34.1187Z" fill="#122C5A"/>
<path d="M66.4836 34.1187H58.3984C57.8308 34.1187 57.3706 34.5788 57.3706 35.1464C57.3706 35.7141 57.8308 36.1742 58.3984 36.1742H66.4836C67.0512 36.1742 67.5113 35.7141 67.5113 35.1464C67.5113 34.5788 67.0512 34.1187 66.4836 34.1187Z" fill="#122C5A"/>
<path d="M84.1612 34.1187H77.1723C76.6047 34.1187 76.1445 34.5788 76.1445 35.1464C76.1445 35.7141 76.6047 36.1742 77.1723 36.1742H84.1612C84.7288 36.1742 85.189 35.7141 85.189 35.1464C85.189 34.5788 84.7288 34.1187 84.1612 34.1187Z" fill="#122C5A"/>
<path d="M27.702 30.4185H19.3427C18.7751 30.4185 18.3149 30.8786 18.3149 31.4462C18.3149 32.0139 18.7751 32.474 19.3427 32.474H27.702C28.2696 32.474 28.7298 32.0139 28.7298 31.4462C28.7298 30.8786 28.2696 30.4185 27.702 30.4185Z" fill="#122C5A"/>
<path d="M39.624 30.4185H37.7055C37.1379 30.4185 36.6777 30.8786 36.6777 31.4462C36.6777 32.0139 37.1379 32.474 37.7055 32.474H39.624C40.1917 32.474 40.6518 32.0139 40.6518 31.4462C40.6518 30.8786 40.1917 30.4185 39.624 30.4185Z" fill="#122C5A"/>
<path d="M66.8947 30.4185H54.8354C54.2678 30.4185 53.8076 30.8786 53.8076 31.4462C53.8076 32.0139 54.2678 32.474 54.8354 32.474H66.8947C67.4623 32.474 67.9224 32.0139 67.9224 31.4462C67.9224 30.8786 67.4623 30.4185 66.8947 30.4185Z" fill="#122C5A"/>
<path d="M85.3942 30.4185H77.309C76.7414 30.4185 76.2812 30.8786 76.2812 31.4462C76.2812 32.0139 76.7414 32.474 77.309 32.474H85.3942C85.9618 32.474 86.422 32.0139 86.422 31.4462C86.422 30.8786 85.9618 30.4185 85.3942 30.4185Z" fill="#122C5A"/>
<path d="M40.0351 26.7188H37.7055C37.1379 26.7188 36.6777 27.1789 36.6777 27.7465C36.6777 28.3142 37.1379 28.7743 37.7055 28.7743H40.0351C40.6028 28.7743 41.0629 28.3142 41.0629 27.7465C41.0629 27.1789 40.6028 26.7188 40.0351 26.7188Z" fill="#122C5A"/>
<path d="M68.402 26.7188H50.039C49.4714 26.7188 49.0112 27.1789 49.0112 27.7465C49.0112 28.3142 49.4714 28.7743 50.039 28.7743H68.402C68.9696 28.7743 69.4297 28.3142 69.4297 27.7465C69.4297 27.1789 68.9696 26.7188 68.402 26.7188Z" fill="#122C5A"/>
<path d="M86.0797 26.7188H79.5019C78.9343 26.7188 78.4741 27.1789 78.4741 27.7465C78.4741 28.3142 78.9343 28.7743 79.5019 28.7743H86.0797C86.6473 28.7743 87.1075 28.3142 87.1075 27.7465C87.1075 27.1789 86.6473 26.7188 86.0797 26.7188Z" fill="#122C5A"/>
<path d="M71.9647 23.0186H64.4277C63.8601 23.0186 63.3999 23.4787 63.3999 24.0463C63.3999 24.614 63.8601 25.0741 64.4277 25.0741H71.9647C72.5323 25.0741 72.9925 24.614 72.9925 24.0463C72.9925 23.4787 72.5323 23.0186 71.9647 23.0186Z" fill="#122C5A"/>
<path d="M101.428 23.0186H96.9057C96.3381 23.0186 95.8779 23.4787 95.8779 24.0463C95.8779 24.614 96.3381 25.0741 96.9057 25.0741H101.428C101.996 25.0741 102.456 24.614 102.456 24.0463C102.456 23.4787 101.996 23.0186 101.428 23.0186Z" fill="#122C5A"/>
<path d="M77.1722 19.3184H59.3574C58.7897 19.3184 58.3296 19.7785 58.3296 20.3461C58.3296 20.9138 58.7897 21.3739 59.3574 21.3739H77.1722C77.7398 21.3739 78.2 20.9138 78.2 20.3461C78.2 19.7785 77.7398 19.3184 77.1722 19.3184Z" fill="#122C5A"/>
<path d="M101.976 19.3184H91.1498C90.5822 19.3184 90.1221 19.7785 90.1221 20.3461C90.1221 20.9138 90.5822 21.3739 91.1498 21.3739H101.976C102.543 21.3739 103.004 20.9138 103.004 20.3461C103.004 19.7785 102.543 19.3184 101.976 19.3184Z" fill="#122C5A"/>
<path d="M81.9001 15.6187H67.9223C67.3547 15.6187 66.8945 16.0788 66.8945 16.6464C66.8945 17.2141 67.3547 17.6742 67.9223 17.6742H81.9001C82.4677 17.6742 82.9279 17.2141 82.9279 16.6464C82.9279 16.0788 82.4677 15.6187 81.9001 15.6187Z" fill="#122C5A"/>
<path d="M65.2502 15.6187H61.1391C60.5715 15.6187 60.1113 16.0788 60.1113 16.6464C60.1113 17.2141 60.5715 17.6742 61.1391 17.6742H65.2502C65.8178 17.6742 66.278 17.2141 66.278 16.6464C66.278 16.0788 65.8178 15.6187 65.2502 15.6187Z" fill="#122C5A"/>
<path d="M105.95 15.6187H84.5722C84.0046 15.6187 83.5444 16.0788 83.5444 16.6464C83.5444 17.2141 84.0046 17.6742 84.5722 17.6742H105.95C106.518 17.6742 106.978 17.2141 106.978 16.6464C106.978 16.0788 106.518 15.6187 105.95 15.6187Z" fill="#122C5A"/>
<path d="M107.046 11.9185H82.3798C81.8122 11.9185 81.3521 12.3786 81.3521 12.9462C81.3521 13.5139 81.8122 13.974 82.3798 13.974H107.046C107.614 13.974 108.074 13.5139 108.074 12.9462C108.074 12.3786 107.614 11.9185 107.046 11.9185Z" fill="#122C5A"/>
<path d="M94.4391 8.21875H69.7724C69.2048 8.21875 68.7446 8.6789 68.7446 9.24653C68.7446 9.81415 69.2048 10.2743 69.7724 10.2743H94.4391C95.0067 10.2743 95.4668 9.81415 95.4668 9.24653C95.4668 8.6789 95.0067 8.21875 94.4391 8.21875Z" fill="#122C5A"/>
<path d="M79.6388 11.9185H66.7573C66.1896 11.9185 65.7295 12.3786 65.7295 12.9462C65.7295 13.5139 66.1896 13.974 66.7573 13.974H79.6388C80.2064 13.974 80.6665 13.5139 80.6665 12.9462C80.6665 12.3786 80.2064 11.9185 79.6388 11.9185Z" fill="#122C5A"/>
<path d="M108.691 8.21875H97.0424C96.4748 8.21875 96.0146 8.6789 96.0146 9.24653C96.0146 9.81415 96.4748 10.2743 97.0424 10.2743H108.691C109.258 10.2743 109.718 9.81415 109.718 9.24653C109.718 8.6789 109.258 8.21875 108.691 8.21875Z" fill="#122C5A"/>
<path d="M109.239 4.51855H77.8574C77.2897 4.51855 76.8296 4.97871 76.8296 5.54633C76.8296 6.11396 77.2897 6.57411 77.8574 6.57411H109.239C109.806 6.57411 110.267 6.11396 110.267 5.54633C110.267 4.97871 109.806 4.51855 109.239 4.51855Z" fill="#122C5A"/>
<path d="M93.3424 0.818359H87.5869C87.0192 0.818359 86.5591 1.27851 86.5591 1.84614C86.5591 2.41376 87.0192 2.87391 87.5869 2.87391H93.3424C93.91 2.87391 94.3702 2.41376 94.3702 1.84614C94.3702 1.27851 93.91 0.818359 93.3424 0.818359Z" fill="#122C5A"/>
<path d="M57.439 56.3184H39.7612C39.1936 56.3184 38.7334 56.7785 38.7334 57.3461C38.7334 57.9138 39.1936 58.3739 39.7612 58.3739H57.439C58.0066 58.3739 58.4667 57.9138 58.4667 57.3461C58.4667 56.7785 58.0066 56.3184 57.439 56.3184Z" fill="#122C5A"/>
<path d="M67.5798 56.3184H59.9057C59.3381 56.3184 58.8779 56.7785 58.8779 57.3461C58.8779 57.9138 59.3381 58.3739 59.9057 58.3739H67.5798C68.1474 58.3739 68.6076 57.9138 68.6076 57.3461C68.6076 56.7785 68.1474 56.3184 67.5798 56.3184Z" fill="#122C5A"/>
<path d="M56.8908 48.9185H47.9833C47.4157 48.9185 46.9556 49.3786 46.9556 49.9462C46.9556 50.5139 47.4157 50.974 47.9833 50.974H56.8908C57.4584 50.974 57.9185 50.5139 57.9185 49.9462C57.9185 49.3786 57.4584 48.9185 56.8908 48.9185Z" fill="#38FBDB"/>
<path d="M56.8906 19.3184H51.8203C51.2526 19.3184 50.7925 19.7785 50.7925 20.3461C50.7925 20.9138 51.2526 21.3739 51.8203 21.3739H56.8906C57.4583 21.3739 57.9184 20.9138 57.9184 20.3461C57.9184 19.7785 57.4583 19.3184 56.8906 19.3184Z" fill="#38FBDB"/>
<path d="M49.2167 19.3184H47.9833C47.4157 19.3184 46.9556 19.7785 46.9556 20.3461C46.9556 20.9138 47.4157 21.3739 47.9833 21.3739H49.2167C49.7843 21.3739 50.2445 20.9138 50.2445 20.3461C50.2445 19.7785 49.7843 19.3184 49.2167 19.3184Z" fill="#A139F5"/>
<path d="M50.0389 45.2188H42.5019C41.9343 45.2188 41.4741 45.6789 41.4741 46.2465C41.4741 46.8142 41.9343 47.2743 42.5019 47.2743H50.0389C50.6066 47.2743 51.0667 46.8142 51.0667 46.2465C51.0667 45.6789 50.6066 45.2188 50.0389 45.2188Z" fill="#A139F5"/>
<path d="M62.3723 45.2188H52.7797C52.2121 45.2188 51.752 45.6789 51.752 46.2465C51.752 46.8142 52.2121 47.2743 52.7797 47.2743H62.3723C62.9399 47.2743 63.4001 46.8142 63.4001 46.2465C63.4001 45.6789 62.9399 45.2188 62.3723 45.2188Z" fill="#FC0FF5"/>
<path d="M63.8794 41.5186H59.2202C58.6525 41.5186 58.1924 41.9787 58.1924 42.5463C58.1924 43.114 58.6525 43.5741 59.2202 43.5741H63.8794C64.447 43.5741 64.9072 43.114 64.9072 42.5463C64.9072 41.9787 64.447 41.5186 63.8794 41.5186Z" fill="#FC0FF5"/>
<path d="M62.7834 37.8184H52.7797C52.2121 37.8184 51.752 38.2785 51.752 38.8461C51.752 39.4138 52.2121 39.8739 52.7797 39.8739H62.7834C63.3511 39.8739 63.8112 39.4138 63.8112 38.8461C63.8112 38.2785 63.3511 37.8184 62.7834 37.8184Z" fill="#A139F5"/>
<path d="M52.2313 30.4185H49.7646C49.197 30.4185 48.7368 30.8786 48.7368 31.4462C48.7368 32.0139 49.197 32.474 49.7646 32.474H52.2313C52.7989 32.474 53.259 32.0139 53.259 31.4462C53.259 30.8786 52.7989 30.4185 52.2313 30.4185Z" fill="#A139F5"/>
<path d="M55.9313 34.1187H44.2831C43.7155 34.1187 43.2554 34.5788 43.2554 35.1464C43.2554 35.7141 43.7155 36.1742 44.2831 36.1742H55.9313C56.4989 36.1742 56.9591 35.7141 56.9591 35.1464C56.9591 34.5788 56.4989 34.1187 55.9313 34.1187Z" fill="#38FBDB"/>
<path d="M47.0243 30.4185H42.228C41.6603 30.4185 41.2002 30.8786 41.2002 31.4462C41.2002 32.0139 41.6603 32.474 42.228 32.474H47.0243C47.5919 32.474 48.052 32.0139 48.052 31.4462C48.052 30.8786 47.5919 30.4185 47.0243 30.4185Z" fill="#FC0FF5"/>
<path d="M47.4352 26.7188H42.5019C41.9343 26.7188 41.4741 27.1789 41.4741 27.7465C41.4741 28.3142 41.9343 28.7743 42.5019 28.7743H47.4352C48.0029 28.7743 48.463 28.3142 48.463 27.7465C48.463 27.1789 48.0029 26.7188 47.4352 26.7188Z" fill="#A139F5"/>
<path d="M54.9723 23.0186H45.6538C45.0861 23.0186 44.626 23.4787 44.626 24.0463C44.626 24.614 45.0861 25.0741 45.6538 25.0741H54.9723C55.5399 25.0741 56.0001 24.614 56.0001 24.0463C56.0001 23.4787 55.5399 23.0186 54.9723 23.0186Z" fill="#FC0FF5"/>
<path d="M61.8239 23.0186H57.7128C57.1452 23.0186 56.6851 23.4787 56.6851 24.0463C56.6851 24.614 57.1452 25.0741 57.7128 25.0741H61.8239C62.3916 25.0741 62.8517 24.614 62.8517 24.0463C62.8517 23.4787 62.3916 23.0186 61.8239 23.0186Z" fill="#38FBDB"/>
<path d="M88.7521 48.9185H79.8447C79.277 48.9185 78.8169 49.3786 78.8169 49.9462C78.8169 50.5139 79.277 50.974 79.8447 50.974H88.7521C89.3197 50.974 89.7799 50.5139 89.7799 49.9462C89.7799 49.3786 89.3197 48.9185 88.7521 48.9185Z" fill="#38FBDB"/>
<path d="M84.6409 45.2188H74.6372C74.0695 45.2188 73.6094 45.6789 73.6094 46.2465C73.6094 46.8142 74.0695 47.2743 74.6372 47.2743H84.6409C85.2085 47.2743 85.6686 46.8142 85.6686 46.2465C85.6686 45.6789 85.2085 45.2188 84.6409 45.2188Z" fill="#A139F5"/>
<path d="M94.5075 45.2188H87.2446C86.6769 45.2188 86.2168 45.6789 86.2168 46.2465C86.2168 46.8142 86.6769 47.2743 87.2446 47.2743H94.5075C95.0752 47.2743 95.5353 46.8142 95.5353 46.2465C95.5353 45.6789 95.0752 45.2188 94.5075 45.2188Z" fill="#38FBDB"/>
<path d="M81.6945 23.0186H74.4316C73.864 23.0186 73.4038 23.4787 73.4038 24.0463C73.4038 24.614 73.864 25.0741 74.4316 25.0741H81.6945C82.2622 25.0741 82.7223 24.614 82.7223 24.0463C82.7223 23.4787 82.2622 23.0186 81.6945 23.0186Z" fill="#A139F5"/>
<path d="M77.1117 41.5186H71.2027C70.6396 41.5186 70.1831 41.975 70.1831 42.5381V42.5546C70.1831 43.1176 70.6396 43.5741 71.2027 43.5741H77.1117C77.6748 43.5741 78.1313 43.1176 78.1313 42.5546V42.5381C78.1313 41.975 77.6748 41.5186 77.1117 41.5186Z" fill="#A139F5"/>
<path d="M74.911 37.8184H69.7036C69.1359 37.8184 68.6758 38.2785 68.6758 38.8461C68.6758 39.4138 69.1359 39.8739 69.7036 39.8739H74.911C75.4786 39.8739 75.9387 39.4138 75.9387 38.8461C75.9387 38.2785 75.4786 37.8184 74.911 37.8184Z" fill="#38FBDB"/>
<path d="M74.2258 34.1187H69.2924C68.7248 34.1187 68.2646 34.5788 68.2646 35.1464C68.2646 35.7141 68.7248 36.1742 69.2924 36.1742H74.2258C74.7934 36.1742 75.2535 35.7141 75.2535 35.1464C75.2535 34.5788 74.7934 34.1187 74.2258 34.1187Z" fill="#FC0FF5"/>
<path d="M98.4896 41.5186H92.5806C92.0175 41.5186 91.561 41.975 91.561 42.5381V42.5546C91.561 43.1176 92.0175 43.5741 92.5806 43.5741H98.4896C99.0527 43.5741 99.5092 43.1176 99.5092 42.5546V42.5381C99.5092 41.975 99.0527 41.5186 98.4896 41.5186Z" fill="#FC0FF5"/>
<path d="M88.5465 19.3184H79.6391C79.0715 19.3184 78.6113 19.7785 78.6113 20.3461C78.6113 20.9138 79.0715 21.3739 79.6391 21.3739H88.5465C89.1141 21.3739 89.5743 20.9138 89.5743 20.3461C89.5743 19.7785 89.1141 19.3184 88.5465 19.3184Z" fill="#38FBDB"/>
<path d="M94.3017 23.0186H84.2294C83.6618 23.0186 83.2017 23.4787 83.2017 24.0463C83.2017 24.614 83.6618 25.0741 84.2294 25.0741H94.3017C94.8693 25.0741 95.3294 24.614 95.3294 24.0463C95.3294 23.4787 94.8693 23.0186 94.3017 23.0186Z" fill="#FC0FF5"/>
<path d="M76.9061 26.7188H70.9971C70.434 26.7188 69.9775 27.1752 69.9775 27.7383V27.7547C69.9775 28.3178 70.434 28.7743 70.9971 28.7743H76.9061C77.4692 28.7743 77.9257 28.3178 77.9257 27.7547V27.7383C77.9257 27.1752 77.4692 26.7188 76.9061 26.7188Z" fill="#FC0FF5"/>
<path d="M74.7054 30.4185H69.498C68.9304 30.4185 68.4702 30.8786 68.4702 31.4462C68.4702 32.0139 68.9304 32.474 69.498 32.474H74.7054C75.273 32.474 75.7332 32.0139 75.7332 31.4462C75.7332 30.8786 75.273 30.4185 74.7054 30.4185Z" fill="#A139F5"/>
<path d="M98.2841 26.7188H92.375C91.8119 26.7188 91.3555 27.1752 91.3555 27.7383V27.7547C91.3555 28.3178 91.8119 28.7743 92.375 28.7743H98.2841C98.8471 28.7743 99.3036 28.3178 99.3036 27.7547V27.7383C99.3036 27.1752 98.8471 26.7188 98.2841 26.7188Z" fill="#38FBDB"/>
<path d="M17.2188 48.9185H12.1484C11.5808 48.9185 11.1206 49.3786 11.1206 49.9462C11.1206 50.5139 11.5808 50.974 12.1484 50.974H17.2188C17.7864 50.974 18.2465 50.5139 18.2465 49.9462C18.2465 49.3786 17.7864 48.9185 17.2188 48.9185Z" fill="#A139F5"/>
<path d="M21.3299 45.2188H12.1484C11.5808 45.2188 11.1206 45.6789 11.1206 46.2465C11.1206 46.8142 11.5808 47.2743 12.1484 47.2743H21.3299C21.8975 47.2743 22.3576 46.8142 22.3576 46.2465C22.3576 45.6789 21.8975 45.2188 21.3299 45.2188Z" fill="#38FBDB"/>
<path d="M16.8076 41.5186H12.1484C11.5808 41.5186 11.1206 41.9787 11.1206 42.5463C11.1206 43.114 11.5808 43.5741 12.1484 43.5741H16.8076C17.3753 43.5741 17.8354 43.114 17.8354 42.5463C17.8354 41.9787 17.3753 41.5186 16.8076 41.5186Z" fill="#38FBDB"/>
<path d="M16.8076 37.8184H12.1484C11.5808 37.8184 11.1206 38.2785 11.1206 38.8461C11.1206 39.4138 11.5808 39.8739 12.1484 39.8739H16.8076C17.3753 39.8739 17.8354 39.4138 17.8354 38.8461C17.8354 38.2785 17.3753 37.8184 16.8076 37.8184Z" fill="#A139F5"/>
<path d="M26.9484 34.1187H12.1484C11.5808 34.1187 11.1206 34.5788 11.1206 35.1464C11.1206 35.7141 11.5808 36.1742 12.1484 36.1742H26.9484C27.516 36.1742 27.9762 35.7141 27.9762 35.1464C27.9762 34.5788 27.516 34.1187 26.9484 34.1187Z" fill="#38FBDB"/>
<path d="M31.4705 34.1187H29.415C28.8474 34.1187 28.3872 34.5788 28.3872 35.1464C28.3872 35.7141 28.8474 36.1742 29.415 36.1742H31.4705C32.0382 36.1742 32.4983 35.7141 32.4983 35.1464C32.4983 34.5788 32.0382 34.1187 31.4705 34.1187Z" fill="#A139F5"/>
<path d="M16.8076 30.4185H12.1484C11.5808 30.4185 11.1206 30.8786 11.1206 31.4462C11.1206 32.0139 11.5808 32.474 12.1484 32.474H16.8076C17.3753 32.474 17.8354 32.0139 17.8354 31.4462C17.8354 30.8786 17.3753 30.4185 16.8076 30.4185Z" fill="#FC0FF5"/>
<path d="M16.8282 26.7188H12.1278C11.5716 26.7188 11.1206 27.1697 11.1206 27.726V27.7671C11.1206 28.3234 11.5716 28.7743 12.1278 28.7743H16.8282C17.3845 28.7743 17.8354 28.3234 17.8354 27.7671V27.726C17.8354 27.1697 17.3845 26.7188 16.8282 26.7188Z" fill="#A139F5"/>
<path d="M23.248 23.0186H11.874C11.3063 23.0186 10.8462 23.4787 10.8462 24.0463C10.8462 24.614 11.3063 25.0741 11.874 25.0741H23.248C23.8157 25.0741 24.2758 24.614 24.2758 24.0463C24.2758 23.4787 23.8157 23.0186 23.248 23.0186Z" fill="#38FBDB"/>
<path d="M32.4296 23.0186H25.7148C25.1472 23.0186 24.687 23.4787 24.687 24.0463C24.687 24.614 25.1472 25.0741 25.7148 25.0741H32.4296C32.9972 25.0741 33.4574 24.614 33.4574 24.0463C33.4574 23.4787 32.9972 23.0186 32.4296 23.0186Z" fill="#A139F5"/>
<path d="M27.7706 19.3184H12.1484C11.5808 19.3184 11.1206 19.7785 11.1206 20.3461C11.1206 20.9138 11.5808 21.3739 12.1484 21.3739H27.7706C28.3382 21.3739 28.7984 20.9138 28.7984 20.3461C28.7984 19.7785 28.3382 19.3184 27.7706 19.3184Z" fill="#FC0FF5"/>
<path d="M35.0332 30.4185H30.374C29.8063 30.4185 29.3462 30.8786 29.3462 31.4462C29.3462 32.0139 29.8063 32.474 30.374 32.474H35.0332C35.6009 32.474 36.061 32.0139 36.061 31.4462C36.061 30.8786 35.6009 30.4185 35.0332 30.4185Z" fill="#38FBDB"/>
<path d="M35.3075 26.7188H30.1C29.5324 26.7188 29.0723 27.1789 29.0723 27.7465C29.0723 28.3142 29.5324 28.7743 30.1 28.7743H35.3075C35.8751 28.7743 36.3352 28.3142 36.3352 27.7465C36.3352 27.1789 35.8751 26.7188 35.3075 26.7188Z" fill="#FC0FF5"/>
<path d="M35.0335 37.8184H32.1557C31.5881 37.8184 31.1279 38.2785 31.1279 38.8461C31.1279 39.4138 31.5881 39.8739 32.1557 39.8739H35.0335C35.6011 39.8739 36.0613 39.4138 36.0613 38.8461C36.0613 38.2785 35.6011 37.8184 35.0335 37.8184Z" fill="#FC0FF5"/>
<path d="M36.815 41.5186H32.1557C31.5881 41.5186 31.1279 41.9787 31.1279 42.5463C31.1279 43.114 31.5881 43.5741 32.1557 43.5741H36.815C37.3826 43.5741 37.8427 43.114 37.8427 42.5463C37.8427 41.9787 37.3826 41.5186 36.815 41.5186Z" fill="#FC0FF5"/>
<path d="M35.8554 45.2188H23.6591C23.0915 45.2188 22.6313 45.6789 22.6313 46.2465C22.6313 46.8142 23.0915 47.2743 23.6591 47.2743H35.8554C36.423 47.2743 36.8832 46.8142 36.8832 46.2465C36.8832 45.6789 36.423 45.2188 35.8554 45.2188Z" fill="#A139F5"/>
<path d="M30.0998 48.9185H19.685C19.1174 48.9185 18.6572 49.3786 18.6572 49.9462C18.6572 50.5139 19.1174 50.974 19.685 50.974H30.0998C30.6674 50.974 31.1276 50.5139 31.1276 49.9462C31.1276 49.3786 30.6674 48.9185 30.0998 48.9185Z" fill="#FC0FF5"/>
</svg>
